<svg xmlns="http://www.w3.org/2000/svg" xmlns:xlink="http://www.w3.org/1999/xlink" width="990" height="941" viewBox="0 0 990 941">
  <defs>
    <clipPath id="clip-SPRK_default_preset_name_custom_1">
      <rect width="990" height="941"/>
    </clipPath>
  </defs>
  <g id="SPRK_default_preset_name_custom_1" data-name="SPRK_default_preset_name_custom – 1" clip-path="url(#clip-SPRK_default_preset_name_custom_1)">
    <rect id="Image_1" data-name="Image 1" width="1679" height="1563" transform="translate(-982.009 -1035.358) rotate(-3)" fill="rgba(27,186,135,0)"/>
    <g id="Group_1" data-name="Group 1" transform="translate(28 -24)">
      <g id="Path_22" data-name="Path 22" transform="matrix(-0.454, -0.891, 0.891, -0.454, 248.555, 1426.949)" fill="#32a7e9">
        <path d="M 208.3670043945312 709.2396850585938 C 212.0217742919922 700.4909057617188 231.3867950439453 654.4862670898438 260.843505859375 590.8017578125 C 280.0199584960938 549.3426513671875 299.6575927734375 508.6142883300781 319.2109375 469.7478332519531 C 343.65185546875 421.1663818359375 368.0289611816406 375.3740234375 391.6653137207031 333.6428527832031 C 410.8561401367188 299.7602233886719 428.7561340332031 265.2799377441406 446.0667724609375 231.9349365234375 C 471.7265930175781 182.5071258544922 495.9634094238281 135.8205718994141 520.339599609375 99.08876037597656 C 533.3551025390625 79.47611999511719 545.4276123046875 64.15430450439453 557.2467651367188 52.24794006347656 C 563.5989379882812 45.84893798828125 569.9760131835938 40.37057495117188 576.200927734375 35.96530151367188 C 582.6861572265625 31.37566566467285 589.2437744140625 27.78184700012207 595.6914672851562 25.2835750579834 L 595.6951293945312 25.28221130371094 L 595.6987915039062 25.2807559967041 C 603.60498046875 22.07402992248535 611.1715698242188 20.4481201171875 618.1886596679688 20.4481201171875 C 621.492919921875 20.4481201171875 624.7432250976562 20.80866622924805 627.8493041992188 21.51993942260742 C 630.8877563476562 22.21575736999512 633.8729248046875 23.26639366149902 636.7220458984375 24.64284706115723 C 642.238525390625 27.30793952941895 647.4714965820312 31.30339241027832 652.2756958007812 36.51811981201172 C 656.2525634765625 40.83484649658203 660.0340576171875 46.09375762939453 663.51513671875 52.1489372253418 C 666.8500366210938 57.9499397277832 669.9972534179688 64.63475799560547 672.869384765625 72.01775360107422 C 678.2190551757812 85.76930236816406 682.8115234375 102.4400329589844 686.5192260742188 121.5671234130859 C 692.7684326171875 153.8042144775391 696.6506958007812 193.5155792236328 698.0580444335938 239.5980224609375 C 698.6110229492188 257.7054748535156 698.778564453125 276.8517456054688 698.5558471679688 296.5050354003906 C 698.3775634765625 312.2282104492188 697.95068359375 328.3092041015625 697.2869262695312 344.3012084960938 C 696.228271484375 369.8049926757812 694.8937377929688 386.9970397949219 694.7171630859375 389.2159423828125 L 208.3670043945312 709.2396850585938 Z" stroke="none"/>
        <path d="M 618.188720703125 20.9481201171875 C 611.2362060546875 20.9481201171875 603.7327880859375 22.5616455078125 595.88671875 25.7440185546875 L 595.8721313476562 25.7498779296875 C 589.462646484375 28.2332763671875 582.9415283203125 31.80755615234375 576.48974609375 36.3734130859375 C 570.2883911132812 40.76214599609375 563.9334716796875 46.2215576171875 557.6015625 52.60009765625 C 545.8057861328125 64.4830322265625 533.7535400390625 79.780029296875 520.7562255859375 99.3651123046875 C 496.3948669433594 136.074462890625 472.1641235351562 182.7494812011719 446.5106811523438 232.1649475097656 C 429.1978454589844 265.5141296386719 411.295654296875 299.9985656738281 392.1002197265625 333.8892211914062 C 368.468505859375 375.6123962402344 344.0957641601562 421.3963928222656 319.6591186523438 469.9693908691406 C 300.1085815429688 508.8302001953125 280.4735717773438 549.5530395507812 261.2996826171875 591.0064086914062 C 233.255126953125 651.6378173828125 214.3590698242188 696.241455078125 209.4609375 707.92138671875 L 694.238037109375 388.9326782226562 C 694.4758911132812 385.9085083007812 695.7619018554688 368.9915161132812 696.7881469726562 344.2619323730469 C 697.4514770507812 328.2742004394531 697.8781127929688 312.1978454589844 698.0560302734375 296.4794006347656 C 698.2785034179688 276.8336791992188 698.1107788085938 257.6951293945312 697.5577392578125 239.5953979492188 C 696.1505737304688 193.543212890625 692.2709350585938 153.8619384765625 686.0267333984375 121.6538696289062 C 682.32470703125 102.5580444335938 677.7406005859375 85.9178466796875 672.4020385742188 72.19549560546875 C 669.5391235351562 64.8365478515625 666.4029541015625 58.17529296875 663.0806884765625 52.39654541015625 C 659.6182861328125 46.3741455078125 655.8592529296875 41.145751953125 651.9077758789062 36.856689453125 C 647.1463012695312 31.6884765625 641.9639892578125 27.73065185546875 636.5045166015625 25.093017578125 C 633.6890869140625 23.73291015625 630.7396240234375 22.69476318359375 627.7376708984375 22.00738525390625 C 624.668212890625 21.30450439453125 621.4554443359375 20.9481201171875 618.188720703125 20.9481201171875 M 618.1886596679688 19.94805908203125 C 725.531494140625 19.94805908203125 695.196044921875 389.4993896484375 695.196044921875 389.4993896484375 L 207.277587890625 710.5551147460938 C 207.277587890625 710.5551147460938 287.5857543945312 516.386474609375 391.2301025390625 333.3963928222656 C 467.6473083496094 198.4774780273438 524.4993896484375 52.3314208984375 595.5108642578125 24.8173828125 C 603.6778564453125 21.5048828125 611.2259521484375 19.94805908203125 618.1886596679688 19.94805908203125 Z" stroke="none" fill="#707070"/>
      </g>
      <path id="Path_19" data-name="Path 19" d="M33-7S140.838,60.376,294,117s366,82.3,366,82.3h0S470,197,288,132,6.3,9.5,6.3,9.5Z" transform="matrix(1, -0.017, 0.017, 1, 83.816, 726.841)" fill="#fff"/>
      <g id="Path_18" data-name="Path 18" transform="translate(1272.18 364.18) rotate(121)" fill="#10b981">
        <path d="M 168.1282196044922 697.1158447265625 C 172.7301330566406 688.4391479492188 195.7985229492188 645.01513671875 228.7865295410156 584.108642578125 C 262.7525329589844 521.3964233398438 314.479248046875 426.7997131347656 368.0165405273438 332.2767028808594 C 385.8118896484375 300.85791015625 402.6156311035156 269.0224304199219 418.8660888671875 238.2351684570312 C 445.5439758300781 187.6927185058594 470.7423400878906 139.9532623291016 495.9983520507812 102.3616256713867 C 509.4855346679688 82.28707885742188 521.9654541015625 66.60262298583984 534.1513671875 54.4119873046875 C 540.7015380859375 47.85926055908203 547.2671508789062 42.24907684326172 553.6659545898438 37.73716735839844 C 560.3331909179688 33.03607940673828 567.0631713867188 29.35471343994141 573.6690063476562 26.79525947570801 L 573.6716918945312 26.79416847229004 L 573.6744995117188 26.79307746887207 C 580.4796142578125 24.06316757202148 587.1130981445312 21.99571418762207 593.3906860351562 20.6480770111084 C 599.4949951171875 19.33771324157715 605.4244384765625 18.67334938049316 611.0142822265625 18.67334938049316 C 615.955322265625 18.67334938049316 620.76318359375 19.19162368774414 625.303955078125 20.21389579772949 C 629.7239990234375 21.20889663696289 634.0132446289062 22.70889663696289 638.0525512695312 24.67207717895508 C 641.9834594726562 26.58262252807617 645.7861938476562 28.98462295532227 649.3552856445312 31.81134986877441 C 652.826416015625 34.56053161621094 656.1719970703125 37.7869873046875 659.2988891601562 41.40116882324219 C 663.49560546875 46.25189590454102 667.4338989257812 51.95698547363281 671.004150390625 58.35798645019531 C 674.423095703125 64.48744201660156 677.5952758789062 71.41753387451172 680.4324340820312 78.95553588867188 C 685.7161865234375 92.99334716796875 690.0342407226562 109.6492614746094 693.2667846679688 128.4607086181641 C 698.7149658203125 160.1657104492188 701.2186889648438 198.4932556152344 700.7085571289062 242.3784484863281 C 700.5079956054688 259.6228942871094 699.8358764648438 277.7769775390625 698.7108154296875 296.3364562988281 C 697.8106079101562 311.1846313476562 696.6202392578125 326.3238830566406 695.172607421875 341.3337097167969 C 692.8670043945312 365.2396240234375 690.6290283203125 381.2453308105469 690.330322265625 383.34521484375 L 168.1282196044922 697.1158447265625 Z" stroke="none"/>
        <path d="M 611.0143432617188 19.17327880859375 C 605.4598388671875 19.17327880859375 599.5656127929688 19.833984375 593.4957275390625 21.136962890625 C 587.2457275390625 22.4786376953125 580.6395263671875 24.5377197265625 573.860595703125 27.257080078125 L 573.849609375 27.26141357421875 C 567.2817993164062 29.80615234375 560.5880126953125 33.46826171875 553.9541625976562 38.14581298828125 C 547.57861328125 42.6412353515625 541.0349731445312 48.23291015625 534.5048828125 54.76544189453125 C 522.3421630859375 66.9329833984375 509.8822631835938 82.59295654296875 496.4133605957031 102.6404418945312 C 471.1721801757812 140.2100830078125 445.9797973632812 187.9381713867188 419.3082580566406 238.4686279296875 C 403.0560913085938 269.2590637207031 386.2506103515625 301.097900390625 368.4515380859375 332.5230712890625 C 314.91650390625 427.0422668457031 263.1915893554688 521.635498046875 229.226806640625 584.3455200195312 C 197.9154052734375 642.1565551757812 175.5413818359375 684.2160034179688 169.41357421875 695.7601318359375 L 689.8685302734375 383.0392150878906 C 690.2722778320312 380.177490234375 692.4432373046875 364.427978515625 694.677001953125 341.263427734375 C 696.1239013671875 326.258544921875 697.3135375976562 311.1245422363281 698.2130737304688 296.2818908691406 C 699.3372802734375 277.7311706542969 700.0087280273438 259.5860900878906 700.208740234375 242.3506164550781 C 700.7176513671875 198.4998168945312 698.2156372070312 160.20654296875 692.7721557617188 128.5345458984375 C 689.5447998046875 109.7565307617188 685.235107421875 93.13336181640625 679.9627075195312 79.1268310546875 C 677.1343383789062 71.6129150390625 673.972900390625 64.70635986328125 670.5662841796875 58.59906005859375 C 667.0128173828125 52.2286376953125 663.0945434570312 46.55224609375 658.9203491210938 41.727783203125 C 655.81396484375 38.1373291015625 652.4912109375 34.9327392578125 649.0445556640625 32.2030029296875 C 645.50390625 29.39874267578125 641.7320556640625 27.0162353515625 637.8338012695312 25.12164306640625 C 633.8291015625 23.17523193359375 629.5765380859375 21.68804931640625 625.194091796875 20.7015380859375 C 620.6892700195312 19.68743896484375 615.9185180664062 19.17327880859375 611.0143432617188 19.17327880859375 M 611.0142822265625 18.17327880859375 C 743.903564453125 18.17327880859375 690.79150390625 383.6512451171875 690.79150390625 383.6512451171875 L 166.84423828125 698.4705200195312 C 166.84423828125 698.4705200195312 263.9370727539062 515.0203857421875 367.5814208984375 332.0302734375 C 443.99853515625 197.1113586425781 502.476806640625 53.8428955078125 573.4883422851562 26.3289794921875 C 587.3942260742188 20.7506103515625 599.866943359375 18.17327880859375 611.0142822265625 18.17327880859375 Z" stroke="none" fill="#707070"/>
      </g>
      <path id="Path_23" data-name="Path 23" d="M34.546-7s114.1,80.737,276.146,148.586S697.931,240.2,697.931,240.2h0s-201.026-2.756-393.587-80.644S6.3,12.77,6.3,12.77Z" transform="matrix(-0.616, -0.788, 0.788, -0.616, 830.134, 903.926)" fill="#fff"/>
      <g id="Path_21" data-name="Path 21" transform="matrix(0.999, 0.035, -0.035, 0.999, -133.401, -6.868)" fill="rgba(251,146,60,0.86)">
        <path d="M 175.0108337402344 743.9246826171875 C 179.1434783935547 734.1688232421875 202.2631683349609 679.9068603515625 235.5738983154297 607.8094482421875 C 257.1077880859375 561.2017211914062 278.6239013671875 516.3707275390625 299.5245056152344 474.5620422363281 C 325.6491088867188 422.3032531738281 350.8800048828125 374.6464538574219 374.5162963867188 332.9152526855469 C 396.8363037109375 293.5078430175781 416.7850036621094 253.1266326904297 436.0768127441406 214.0750427246094 C 459.0976867675781 167.4746398925781 480.8420104980469 123.4586410522461 502.9479064941406 88.99034118652344 C 514.7412719726562 70.6014404296875 525.7788696289062 56.23403930664062 536.6912841796875 45.06703948974609 C 542.5513916015625 39.07024002075195 548.4694213867188 33.93193817138672 554.2808227539062 29.7949390411377 C 560.3284301757812 25.48974227905273 566.4832763671875 22.10962104797363 572.574951171875 19.74837875366211 C 581.968994140625 16.49175834655762 590.9776611328125 14.84073925018311 599.352294921875 14.84073925018311 C 603.8801879882812 14.84073925018311 608.3193969726562 15.3234395980835 612.5465698242188 16.27544021606445 C 616.6676025390625 17.20343971252441 620.7012939453125 18.60323905944824 624.5355834960938 20.43583869934082 C 628.2730102539062 22.2220401763916 631.9243774414062 24.46893882751465 635.3883056640625 27.11404037475586 C 638.7626953125 29.69083976745605 642.0521240234375 32.71623992919922 645.1649169921875 36.10643768310547 C 649.5941772460938 40.93043899536133 653.8140869140625 46.65343856811523 657.7072143554688 53.11653900146484 C 661.4351196289062 59.30543899536133 664.9622192382812 66.33673858642578 668.1904907226562 74.01534271240234 C 674.2020874023438 88.31414031982422 679.3995971679688 105.3760375976562 683.6386108398438 124.726936340332 C 690.78271484375 157.3397369384766 695.3701171875 196.9659423828125 697.2730712890625 242.5047454833984 C 698.0208129882812 260.3985290527344 698.3507690429688 279.259033203125 698.2537231445312 298.5624389648438 C 698.176025390625 314.0056457519531 697.8264770507812 329.76513671875 697.2147216796875 345.4031372070312 C 696.239013671875 370.3403930664062 694.8958740234375 387.0613403320312 694.7175903320312 389.2206115722656 L 175.0108337402344 743.9246826171875 Z" stroke="none"/>
        <path d="M 599.3521728515625 15.34075927734375 C 591.037109375 15.34075927734375 582.086669921875 16.98138427734375 572.7496948242188 20.21697998046875 C 566.6988525390625 22.5631103515625 560.5823974609375 25.9227294921875 554.5706787109375 30.20220947265625 C 548.7833862304688 34.322021484375 542.8883056640625 39.44085693359375 537.0488891601562 45.41656494140625 C 526.1605224609375 56.558837890625 515.1436767578125 70.9002685546875 503.3688049316406 89.2601318359375 C 481.2779846191406 123.7049560546875 459.539794921875 167.708740234375 436.5252075195312 214.296142578125 C 417.2301940917969 253.3541259765625 397.2784118652344 293.7418518066406 374.951171875 333.1616516113281 C 351.319580078125 374.8847351074219 326.0932006835938 422.5331420898438 299.972900390625 474.7832336425781 C 279.0747680664062 516.5869140625 257.5612182617188 561.4126586914062 236.0296020507812 608.0152587890625 C 204.2053833007812 676.8950805664062 181.684326171875 729.4931030273438 176.1368408203125 742.5508422851562 L 694.2386474609375 388.9420776367188 C 694.4785766601562 386.0000610351562 695.769287109375 369.5549011230469 696.7149047851562 345.3836364746094 C 697.3264770507812 329.7512512207031 697.676025390625 313.9975280761719 697.7536010742188 298.5599365234375 C 697.8507080078125 279.2643432617188 697.5208740234375 260.4116516113281 696.7734985351562 242.525634765625 C 694.87158203125 197.0157470703125 690.2880859375 157.4185180664062 683.1500854492188 124.8340454101562 C 678.9176025390625 105.5126342773438 673.7293701171875 88.48004150390625 667.7294921875 74.20916748046875 C 664.510498046875 66.5526123046875 660.994384765625 59.54296875 657.27880859375 53.37451171875 C 653.4030151367188 46.9400634765625 649.2033081054688 41.2440185546875 644.796630859375 36.44464111328125 C 641.7034912109375 33.0760498046875 638.43603515625 30.0704345703125 635.0848388671875 27.51141357421875 C 631.648193359375 24.88726806640625 628.0263671875 22.6583251953125 624.3198852539062 20.886962890625 C 620.519287109375 19.0704345703125 616.521240234375 17.68304443359375 612.4365844726562 16.76312255859375 C 608.245361328125 15.8193359375 603.8432006835938 15.34075927734375 599.3521728515625 15.34075927734375 M 599.3522338867188 14.34075927734375 C 727.254150390625 14.34075927734375 695.1959838867188 389.4994506835938 695.1959838867188 389.4994506835938 L 173.888427734375 745.296142578125 C 173.888427734375 745.296142578125 270.4368286132812 515.6588134765625 374.0811157226562 332.6688537597656 C 450.498291015625 197.7499389648438 501.3919982910156 46.79266357421875 572.4034423828125 19.27862548828125 C 582.0859985351562 15.92120361328125 591.0648193359375 14.34075927734375 599.3522338867188 14.34075927734375 Z" stroke="none" fill="#707070"/>
      </g>
      <path id="Path_24" data-name="Path 24" d="M33-7S140.838,60.376,294,117s366,82.3,366,82.3h0S470,197,288,132,6.3,9.5,6.3,9.5Z" transform="translate(562.202 197.122) rotate(118)" fill="#fff"/>
    </g>
  </g>
</svg>
